<?xml version="1.0" encoding="UTF-8"?>
<svg width="100px" height="101px" viewBox="0 0 100 101" version="1.1" xmlns="http://www.w3.org/2000/svg" xmlns:xlink="http://www.w3.org/1999/xlink">
    <!-- Generator: Sketch 40.3 (33839) - http://www.bohemiancoding.com/sketch -->
    <title>main-logo</title>
    <desc>Created with Sketch.</desc>
    <defs>
        <polygon id="path-1" points="0.000341880342 100 99.4037607 100 99.4037607 0.595128205 0.000341880342 0.595128205 0.000341880342 100"></polygon>
    </defs>
    <g id="Page-1" stroke="none" stroke-width="1" fill="none" fill-rule="evenodd">
        <g id="320" transform="translate(-110.000000, -105.000000)">
            <g id="main-logo" transform="translate(110.000000, 105.000000)">
                <path d="M19.8158974,44.3203419 L20.1466667,43.0929915 C20.3740171,42.2545299 20.3441026,41.5323077 20.0466667,40.9442735 C19.7475214,40.3562393 19.2432479,39.9605128 18.5133333,39.7639316 C17.7817094,39.5664957 17.1483761,39.6545299 16.5928205,40.0126496 C16.0381197,40.3699145 15.6500855,40.9801709 15.422735,41.8194872 L15.0911111,43.0451282 L19.8158974,44.3203419 Z M20.4859829,45.64 L13.8466667,43.8476923 L14.4911111,41.4639316 C14.7851282,40.374188 15.3364103,39.5801709 16.1381197,39.0622222 C16.9398291,38.5417094 17.8312821,38.4100855 18.8073504,38.674188 C19.7851282,38.9374359 20.497094,39.5023932 20.9287179,40.3528205 C21.3594872,41.2049573 21.4261538,42.165641 21.1312821,43.2562393 L20.4859829,45.64 Z" id="Fill-1" fill="#FFFFFF"></path>
                <polygon id="Fill-3" fill="#FFFFFF" points="22.7488889 38.4910256 16.4967521 35.6209402 16.9540171 34.6200855 23.2078632 37.4901709"></polygon>
                <path d="M23.454188,34.9911966 C22.5063248,35.1826496 21.602906,34.992906 20.7490598,34.4134188 C19.8935043,33.8347863 19.3815385,33.0655556 19.2208547,32.1108547 C19.0524786,31.1510256 19.2678632,30.2347863 19.8567521,29.3655556 C20.3319658,28.6604274 20.8977778,28.1749573 21.554188,27.9065812 L22.4405128,28.5082906 C21.7242735,28.7954701 21.154188,29.252735 20.7328205,29.8749573 C20.3071795,30.5040171 20.1499145,31.1587179 20.2738462,31.8347863 C20.3994872,32.51 20.762735,33.0587179 21.3900855,33.4835043 C22.0157265,33.9074359 22.662735,34.0561538 23.3217094,33.9236752 C23.9789744,33.7775214 24.5046154,33.4202564 24.902906,32.8330769 C25.2994872,32.244188 25.4567521,31.6629915 25.3687179,31.1074359 L23.294359,29.7023077 L23.9097436,28.7903419 L26.3507692,30.4458974 C26.5849573,31.2920513 26.3952137,32.4322222 25.7413675,33.401453 C25.1635897,34.2535897 24.3994872,34.7877778 23.454188,34.9911966" id="Fill-5" fill="#FFFFFF"></path>
                <polygon id="Fill-7" fill="#FFFFFF" points="28.2618803 30.065812 23.2969231 25.2982906 24.0601709 24.5051282 29.0251282 29.2735043"></polygon>
                <polygon id="Fill-9" fill="#FFFFFF" points="25.3371795 23.1288889 29.8559829 19.6075214 30.4662393 20.3895726 28.6371795 21.8169231 32.258547 26.4596581 31.3910256 27.1365812 27.7696581 22.4921368 25.9474359 23.9109402"></polygon>
                <path d="M34.3207692,21.9228205 L36.6036752,20.7655556 L34.1583761,18.7655556 L34.3207692,21.9228205 Z M33.4720513,25.3390598 L33.0780342,17.7800855 L34.0233333,17.301453 L39.8746154,22.0937607 L38.8233333,22.627094 L37.3720513,21.444188 L34.4113675,22.9450427 L34.515641,24.8108547 L33.4720513,25.3390598 Z" id="Fill-11" fill="#FFFFFF"></path>
                <polygon id="Fill-13" fill="#FFFFFF" points="40.635812 21.9795726 38.944359 15.3146154 40.0195726 15.0419658 41.4691453 20.7453846 45.0759829 19.8308547 45.3195726 20.7923932"></polygon>
                <path d="M50.1735897,17.8813675 L52.7317094,18.0155556 L51.6035043,15.0642735 L50.1735897,17.8813675 Z M47.7368376,20.4198291 L51.1539316,13.6728205 L52.2146154,13.7283761 L54.9120513,20.7950427 L53.7325641,20.7335043 L53.0616239,18.9873504 L49.7445299,18.8129915 L48.9069231,20.4796581 L47.7368376,20.4198291 Z" id="Fill-15" fill="#FFFFFF"></path>
                <polygon id="Fill-17" fill="#FFFFFF" points="55.5764103 20.9829915 57.6080342 14.404359 58.5259829 14.6881197 60.8311111 20.6180342 62.3020513 15.8539316 63.3345299 16.172735 61.3037607 22.7513675 60.4140171 22.4770085 58.0866667 16.5188889 56.6088889 21.3017949"></polygon>
                <polygon id="Fill-19" fill="#FFFFFF" points="62.618547 23.5195726 65.7647009 17.3982051 66.7424786 17.8999145 63.5963248 24.0221368"></polygon>
                <polygon id="Fill-21" fill="#FFFFFF" points="64.991453 24.6021368 69.208547 19.1713675 70.0940171 19.8576923 69.9897436 23.6944444 73.6641026 22.632906 74.534188 23.307265 70.3153846 28.7397436 69.4470085 28.0645299 72.6529915 23.9363248 69.5213675 24.7884615 69.0153846 24.3952991 69.065812 21.15 65.8606838 25.2773504"></polygon>
                <path d="M74.3255556,29.4089744 L75.8836752,31.4423077 L77.3964957,28.6688034 L74.3255556,29.4089744 Z M70.8144444,29.2004274 L78.1640171,27.4260684 L78.8084615,28.2679487 L75.1819658,34.9047009 L74.4640171,33.9662393 L75.3580342,32.3235043 L73.3383761,29.6867521 L71.5247009,30.1303419 L70.8144444,29.2004274 Z" id="Fill-23" fill="#FFFFFF"></path>
                <polygon id="Fill-25" fill="#FFFFFF" points="75.4298291 35.6130769 81.6546154 32.6857265 82.1264103 33.69 76.7999145 36.1951282 78.3811111 39.5609402 77.4819658 39.9831624"></polygon>
                <path d="M78.2710256,40.3898291 L79.4077778,40.1111966 C79.2359829,40.4411111 79.1265812,40.8599145 79.0667521,41.3590598 C79.0094872,41.8676068 79.0376923,42.355641 79.1522222,42.821453 C79.3718803,43.7154701 79.9120513,44.3026496 80.5325641,44.1505128 C80.8009402,44.0855556 80.9770085,43.8975214 81.0795726,43.6966667 C81.1282906,43.6026496 81.1658974,43.4701709 81.1949573,43.2975214 C81.2607692,42.9513675 81.264188,42.7564957 81.2804274,42.2881197 L81.2847009,42.1428205 C81.2966667,41.7376923 81.3171795,41.412906 81.3445299,41.1906838 C81.3710256,40.9684615 81.43,40.7163248 81.5120513,40.4282906 C81.6949573,39.8582051 82.0744444,39.5488034 82.6855556,39.3983761 C83.7941026,39.1257265 84.7419658,39.8923932 85.1171795,41.4171795 C85.3180342,42.2325641 85.3154701,43.0069231 85.0983761,43.73 L84.047094,43.9881197 C84.2898291,43.1975214 84.3223077,42.4265812 84.1376923,41.6787179 C83.9094872,40.7453846 83.4436752,40.3761538 82.947094,40.4975214 C82.6599145,40.5684615 82.5479487,40.7710256 82.4428205,41.0453846 C82.3975214,41.1898291 82.3787179,41.5240171 82.3513675,41.7060684 L82.3231624,42.5359829 C82.2975214,43.0889744 82.2564957,43.4180342 82.1334188,43.9017949 C81.9658974,44.5821368 81.5667521,45.0205983 80.8223077,45.2445299 C80.2009402,45.3966667 79.6513675,45.2633333 79.1770085,44.855641 C78.7017949,44.447094 78.3667521,43.8693162 78.1829915,43.1205983 C77.9282906,42.0812821 77.9590598,41.1770085 78.2710256,40.3898291" id="Fill-27" fill="#FFFFFF"></path>
                <path d="M17.7676068,65.6853846 C18.0317094,64.7537607 18.612906,64.0366667 19.5188889,63.5417949 C20.4240171,63.0477778 21.3428205,62.944359 22.264188,63.2383761 C23.195812,63.527265 23.9103419,64.1383761 24.4137607,65.0597436 C24.821453,65.8058974 24.9941026,66.5315385 24.9334188,67.2366667 L23.9923932,67.7503419 C24.0650427,66.9811111 23.9180342,66.2640171 23.5590598,65.6058974 C23.1941026,64.9392308 22.6855556,64.5007692 22.0282906,64.3016239 C21.3710256,64.1016239 20.7154701,64.1742735 20.0530769,64.5375214 C19.3881197,64.9007692 18.9607692,65.4084615 18.7778632,66.0563248 C18.6069231,66.7058974 18.6821368,67.3375214 19.0231624,67.9597436 C19.3633333,68.5828205 19.8094872,68.9888034 20.3428205,69.1640171 L22.5411111,67.9631624 L23.0684615,68.927265 L20.4821368,70.3409402 C19.6223077,70.161453 18.695812,69.4717094 18.1359829,68.4452137 C17.6411111,67.5417949 17.5171795,66.6187179 17.7676068,65.6853846" id="Fill-29" fill="#FFFFFF"></path>
                <path d="M21.622906,72.5729915 L22.4938462,71.7935043 C22.497265,72.1652991 22.5981197,72.5866667 22.7801709,73.054188 C22.9690598,73.5302564 23.2237607,73.9464957 23.5442735,74.3037607 C24.1605128,74.9892308 24.9117949,75.2550427 25.3870085,74.828547 C25.5929915,74.6447863 25.6596581,74.3960684 25.6562393,74.1712821 C25.6536752,74.0652991 25.6237607,73.9302564 25.5690598,73.7652991 C25.4639316,73.4276923 25.374188,73.254188 25.1682051,72.8345299 L25.1041026,72.702906 C24.9246154,72.3413675 24.7895726,72.0447863 24.7075214,71.8353846 C24.6263248,71.6268376 24.5613675,71.377265 24.4955556,71.0841026 C24.3895726,70.494359 24.5776068,70.0430769 25.0459829,69.6242735 C25.8947009,68.8618803 27.0904274,69.0926496 28.1408547,70.262735 C28.7006838,70.8866667 29.0630769,71.5704274 29.2117949,72.3097436 L28.4083761,73.0319658 C28.2476923,72.2217094 27.914359,71.5251282 27.4006838,70.9524786 C26.7588034,70.2379487 26.174188,70.1311111 25.7938462,70.4712821 C25.574188,70.6678632 25.5707692,70.8986325 25.6066667,71.1909402 C25.6348718,71.3388034 25.7758974,71.6430769 25.8391453,71.8148718 L26.2049573,72.5618803 C26.4425641,73.0618803 26.5613675,73.3721368 26.6793162,73.8567521 C26.8519658,74.5345299 26.7066667,75.1088889 26.157094,75.6558974 C25.6810256,76.0823932 25.1348718,76.2234188 24.5246154,76.0866667 C23.9117949,75.9499145 23.3468376,75.5977778 22.8305983,75.0242735 C22.1160684,74.228547 21.7177778,73.4148718 21.622906,72.5729915" id="Fill-31" fill="#FFFFFF"></path>
                <polygon id="Fill-33" fill="#FFFFFF" points="30.2651282 72.7608547 34.8711111 76.1676923 34.2805128 76.9659829 32.4155556 75.5864957 28.9155556 80.3189744 28.0317949 79.6651282 31.5309402 74.9326496 29.6762393 73.5591453"></polygon>
                <path d="M35.6846154,76.6395726 L36.6923077,77.0788889 L35.0931624,80.755812 C34.5794872,81.9387179 34.9606838,82.8660684 35.9794872,83.3079487 C36.9957265,83.7506838 37.9444444,83.4019658 38.457265,82.2199145 L40.0564103,78.5421368 L41.065812,78.9797436 L39.4811966,82.6224786 C39.0974359,83.507094 38.5521368,84.0848718 37.8367521,84.3515385 C37.1205128,84.6190598 36.3726496,84.5840171 35.5752137,84.2370085 C34.7777778,83.89 34.2418803,83.3669231 33.9444444,82.6703419 C33.6623932,81.9677778 33.7119658,81.1763248 34.1,80.2823077 L35.6846154,76.6395726 Z" id="Fill-35" fill="#FFFFFF"></path>
                <path d="M42.7217094,85.4202564 L43.9781197,85.618547 C44.837094,85.7544444 45.5524786,85.6484615 46.1063248,85.2877778 C46.6584615,84.9279487 46.9977778,84.384359 47.1157265,83.6373504 C47.2319658,82.8894872 47.0781197,82.2681197 46.6610256,81.7552991 C46.245641,81.2424786 45.5977778,80.9211111 44.7379487,80.7852137 L43.4832479,80.5877778 L42.7217094,85.4202564 Z M41.4806838,86.2296581 L42.5499145,79.4364957 L44.9917949,79.8211111 C46.1080342,79.9971795 46.9567521,80.4595726 47.5593162,81.2005983 C48.1618803,81.9424786 48.3892308,82.8125641 48.2319658,83.8134188 C48.0747009,84.8125641 47.5892308,85.5809402 46.7883761,86.101453 C45.9866667,86.6202564 45.0388034,86.7903419 43.9217094,86.6142735 L41.4806838,86.2296581 Z" id="Fill-37" fill="#FFFFFF"></path>
                <polygon id="Fill-39" fill="#FFFFFF" points="50.3012821 87.1371795 50.1397436 80.2619658 51.2405983 80.2371795 51.4012821 87.1123932"></polygon>
                <path d="M57.3951282,85.4586325 C58.0703419,85.3116239 58.5857265,84.9483761 58.9429915,84.3774359 C59.2976923,83.7979487 59.4028205,83.1509402 59.2481197,82.4398291 C59.0934188,81.7287179 58.7293162,81.1834188 58.1677778,80.8124786 C57.6036752,80.4321368 56.9848718,80.314188 56.3096581,80.4611966 C55.6352991,80.6073504 55.1199145,80.9705983 54.7652137,81.5517949 C54.407094,82.1235897 54.3122222,82.7671795 54.4669231,83.4791453 C54.6216239,84.1894017 54.9754701,84.7355556 55.5395726,85.1167521 C56.1011111,85.4876923 56.7207692,85.6047863 57.3951282,85.4586325 M57.6113675,86.4483761 C56.6028205,86.6671795 55.6994017,86.5116239 54.8891453,85.9928205 C54.0891453,85.4620513 53.5771795,84.7073504 53.3617949,83.7176068 C53.1464103,82.7278632 53.3002564,81.8295726 53.8105128,81.0244444 C54.3301709,80.2064957 55.0874359,79.6902564 56.0951282,79.4705983 C57.1011111,79.2526496 58.0062393,79.4090598 58.8164957,79.9364103 C59.6258974,80.4552137 60.1378632,81.2090598 60.3532479,82.1996581 C60.5677778,83.1902564 60.4147863,84.0876923 59.8959829,84.905641 C59.3754701,85.7124786 58.6173504,86.2295726 57.6113675,86.4483761" id="Fill-41" fill="#FFFFFF"></path>
                <path d="M62.658547,84.1648718 C62.5141026,83.8093162 62.6858974,83.4101709 63.0559829,83.2588889 C63.3995726,83.1187179 63.8200855,83.2759829 63.9645299,83.6306838 C64.1132479,83.9947863 63.9423077,84.3939316 63.5807692,84.5409402 C63.2106838,84.6922222 62.807265,84.5281197 62.658547,84.1648718" id="Fill-43" fill="#FFFFFF"></path>
                <path d="M66.3177778,82.2601709 C65.3699145,82.0336752 64.6331624,81.4781197 64.1066667,80.5892308 C63.5810256,79.7020513 63.4468376,78.7883761 63.7066667,77.8567521 C63.9639316,76.9148718 64.5494017,76.1781197 65.4605128,75.6362393 C66.0801709,75.2695726 66.7015385,75.0823932 67.3305983,75.0635897 L67.8852991,76.0020513 C67.2109402,75.9806838 66.5784615,76.1507692 65.9852991,76.5020513 C65.357094,76.8755556 64.9494017,77.4037607 64.774188,78.0678632 C64.5981197,78.7311111 64.7023932,79.3789744 65.0784615,80.0131624 C65.4545299,80.645641 65.9844444,81.0516239 66.6528205,81.2148718 C67.3271795,81.3738462 67.9801709,81.2610256 68.6246154,80.8781197 C69.3049573,80.4738462 69.7758974,79.9550427 70.0246154,79.3148718 L70.5810256,80.2533333 C70.2673504,80.8618803 69.7784615,81.3704274 69.0989744,81.7729915 C68.1955556,82.3105983 67.2690598,82.4721368 66.3177778,82.2601709" id="Fill-45" fill="#FFFFFF"></path>
                <path d="M74.7087179,75.9935043 C75.1950427,75.5054701 75.4309402,74.92 75.4206838,74.2473504 C75.4044444,73.5661538 75.1420513,72.9670085 74.6266667,72.4524786 C74.1121368,71.9396581 73.5112821,71.6798291 72.8377778,71.6729915 C72.1591453,71.6601709 71.5745299,71.8969231 71.0890598,72.3866667 C70.6001709,72.8755556 70.3659829,73.4610256 70.3822222,74.1405128 C70.3916239,74.8131624 70.6617094,75.4063248 71.1762393,75.92 C71.6916239,76.4336752 72.285641,76.7003419 72.9659829,76.7148718 C73.6386325,76.7208547 74.2215385,76.4823932 74.7087179,75.9935043 M75.425812,76.7080342 C74.6993162,77.4388034 73.8548718,77.7977778 72.8950427,77.8020513 C71.934359,77.7917949 71.0958974,77.4353846 70.3796581,76.7217094 C69.6625641,76.0071795 69.3035897,75.1695726 69.2958974,74.2157265 C69.2882051,73.2482051 69.6446154,72.4020513 70.3711111,71.6721368 C71.0976068,70.9422222 71.9411966,70.5815385 72.9087179,70.585812 C73.868547,70.5815385 74.7078632,70.937094 75.4241026,71.6524786 C76.1411966,72.3670085 76.5001709,73.2037607 76.5078632,74.1721368 C76.5087179,75.1319658 76.151453,75.9781197 75.425812,76.7080342" id="Fill-47" fill="#FFFFFF"></path>
                <polygon id="Fill-49" fill="#FFFFFF" points="79.7667521 71.4795726 73.738547 68.1693162 74.2770085 67.1881197 78.0804274 66.6881197 76.4513675 63.2257265 76.9795726 62.2616239 83.0060684 65.5718803 82.4787179 66.5351282 77.8966667 64.0188889 79.2325641 66.9770085 78.9257265 67.538547 75.7137607 68.0000855 80.2949573 70.5146154"></polygon>
                <path d="M81.6083761,54.1198291 C82.031453,53.9847863 82.3169231,53.7625641 82.5511111,53.385641 C82.6861538,53.8095726 82.9083761,54.0933333 83.2852991,54.3283761 C82.8622222,54.4634188 82.5776068,54.685641 82.3425641,55.0625641 C82.2075214,54.6394872 81.9861538,54.3540171 81.6083761,54.1198291 M82.5186325,56.4984615 C82.9767521,55.0463248 83.1152137,54.9386325 84.6348718,54.8497436 C84.8066667,54.8394872 84.9468376,54.7078632 84.9682051,54.5369231 C84.9895726,54.3659829 84.8861538,54.2044444 84.7211966,54.1523077 C83.2699145,53.6950427 83.1613675,53.5565812 83.0724786,52.0360684 C83.0622222,51.8642735 82.931453,51.7241026 82.7605128,51.702735 C82.5895726,51.6813675 82.4271795,51.785641 82.3758974,51.9497436 C81.9177778,53.4018803 81.7793162,53.5095726 80.2596581,53.5984615 C80.0878632,53.6087179 79.9468376,53.7394872 79.9254701,53.9112821 C79.9049573,54.0822222 80.0083761,54.2437607 80.1724786,54.2950427 C81.6246154,54.7540171 81.7323077,54.8924786 81.8211966,56.4121368 C81.831453,56.5839316 81.9630769,56.7241026 82.1340171,56.7454701 C82.3049573,56.7668376 82.4664957,56.6625641 82.5186325,56.4984615" id="Fill-51" fill="#FFFFFF"></path>
                <path d="M17.0405128,55.062906 C16.8063248,54.6851282 16.5208547,54.462906 16.0977778,54.3278632 C16.4755556,54.0936752 16.6969231,53.8090598 16.8319658,53.3851282 C17.0670085,53.762906 17.3516239,53.9851282 17.7747009,54.1201709 C17.3977778,54.354359 17.1755556,54.6398291 17.0405128,55.062906 M17.2490598,56.745812 C17.4208547,56.7244444 17.5516239,56.5834188 17.5618803,56.4116239 C17.6507692,54.8919658 17.7584615,54.7535043 19.2105983,54.2953846 C19.3747009,54.2441026 19.4789744,54.0817094 19.4576068,53.9107692 C19.4362393,53.7398291 19.2960684,53.6082051 19.1242735,53.5988034 C17.6046154,53.5099145 17.4661538,53.4013675 17.0080342,51.9500855 C16.9558974,51.7851282 16.794359,51.6817094 16.6234188,51.7030769 C16.4524786,51.7244444 16.3208547,51.8646154 16.3105983,52.0364103 C16.2217094,53.5560684 16.1140171,53.6945299 14.6618803,54.1526496 C14.4977778,54.2039316 14.3935043,54.3663248 14.4148718,54.537265 C14.4362393,54.7082051 14.5764103,54.8398291 14.7482051,54.8492308 C16.2678632,54.9389744 16.4063248,55.0466667 16.8652991,56.4979487 C16.9165812,56.662906 17.0781197,56.7663248 17.2490598,56.745812" id="Fill-53" fill="#FFFFFF"></path>
                <path d="M50.6259829,73.794188 C37.8140171,73.794188 27.3892308,63.3702564 27.3892308,50.5574359 C27.3892308,37.7446154 37.8140171,27.3206838 50.6259829,27.3206838 C56.0798291,27.3206838 61.3815385,29.2488889 65.5533333,32.7497436 C65.7345299,32.9010256 65.7576068,33.1702564 65.6054701,33.351453 C65.4550427,33.5335043 65.1849573,33.5574359 65.0037607,33.4035897 C60.985812,30.0326496 55.8789744,28.1753846 50.6259829,28.1753846 C38.2849573,28.1753846 28.2439316,38.2164103 28.2439316,50.5574359 C28.2439316,62.8993162 38.2849573,72.9394872 50.6259829,72.9394872 C57.7738462,72.9394872 64.3234188,69.6454701 68.5960684,63.902735 C68.7379487,63.7129915 69.0071795,63.6762393 69.1952137,63.8147009 C69.3832479,63.9557265 69.4234188,64.2241026 69.2823932,64.4129915 C64.9123077,70.2864957 57.9379487,73.794188 50.6259829,73.794188" id="Fill-55" fill="#FFFFFF"></path>
                <path d="M50.6259829,64.7212821 C42.8328205,64.7212821 36.4926496,58.3811111 36.4926496,50.5879487 C36.4926496,42.7947863 42.8328205,36.4537607 50.6259829,36.4537607 C54.3037607,36.4537607 57.785812,37.8580342 60.4319658,40.4084615 C60.6020513,40.5725641 60.6071795,40.8435043 60.4430769,41.012735 C60.2789744,41.1845299 60.0088889,41.1879487 59.8388034,41.0238462 C57.3524786,38.6281197 54.0806838,37.3084615 50.6259829,37.3084615 C43.3046154,37.3084615 37.3473504,43.2648718 37.3473504,50.5879487 C37.3473504,57.9093162 43.3046154,63.8665812 50.6259829,63.8665812 C53.9003419,63.8665812 57.045641,62.6648718 59.4815385,60.4836752 C59.6567521,60.3255556 59.9268376,60.3409402 60.0849573,60.5161538 C60.2430769,60.6922222 60.2276923,60.9631624 60.0524786,61.1195726 C57.4584615,63.4426496 54.1105983,64.7212821 50.6259829,64.7212821" id="Fill-57" fill="#FFFFFF"></path>
                <path d="M50.6259829,69.2368376 C40.3259829,69.2368376 31.9473504,60.8573504 31.9473504,50.5582051 C31.9473504,40.2582051 40.3259829,31.8778632 50.6259829,31.8778632 C53.5464957,31.8778632 56.3413675,32.5325641 58.9353846,33.8231624 C59.1464957,33.9282906 59.2319658,34.1847009 59.1268376,34.395812 C59.0217094,34.6077778 58.7644444,34.6941026 58.554188,34.5881197 C56.0806838,33.3573504 53.4131624,32.7325641 50.6259829,32.7325641 C40.7977778,32.7325641 32.8020513,40.7291453 32.8020513,50.5582051 C32.8020513,60.3864103 40.7977778,68.3821368 50.6259829,68.3821368 C55.7584615,68.3821368 60.645641,66.1667521 64.0336752,62.3035043 C64.1883761,62.1265812 64.4584615,62.1094872 64.637094,62.264188 C64.8140171,62.4197436 64.8311111,62.6898291 64.6755556,62.8676068 C61.1251282,66.9146154 56.0046154,69.2368376 50.6259829,69.2368376" id="Fill-59" fill="#FFFFFF"></path>
                <path d="M68.9394872,64.5852137 C68.8933333,64.5852137 68.8471795,64.5775214 68.8010256,64.5621368 L64.2164103,62.9894872 L59.6121368,61.1997436 C59.3924786,61.1142735 59.2830769,60.8664103 59.3694017,60.6467521 C59.4540171,60.4262393 59.7018803,60.3168376 59.9223932,60.4031624 L64.5095726,62.1869231 L69.0779487,63.7535897 C69.3018803,63.8296581 69.4198291,64.0732479 69.3437607,64.2963248 C69.2822222,64.4741026 69.117265,64.5852137 68.9394872,64.5852137" id="Fill-61" fill="#FFFFFF"></path>
                <path d="M68.9394872,64.5852137 C68.7035897,64.5852137 68.5121368,64.3937607 68.5121368,64.1578632 L68.5121368,46.3903419 L51.0531624,46.3903419 L51.0531624,54.7065812 L59.7694017,54.7065812 C60.0061538,54.7065812 60.1967521,54.8980342 60.1967521,55.1339316 L60.1967521,60.801453 C60.1967521,61.0382051 60.0061538,61.2288034 59.7694017,61.2288034 C59.5335043,61.2288034 59.3420513,61.0382051 59.3420513,60.801453 L59.3420513,55.5612821 L50.625812,55.5612821 C50.3899145,55.5612821 50.1984615,55.3706838 50.1984615,55.1339316 L50.1984615,45.9629915 C50.1984615,45.727094 50.3899145,45.535641 50.625812,45.535641 L68.9394872,45.535641 C69.1753846,45.535641 69.3668376,45.727094 69.3668376,45.9629915 L69.3668376,64.1578632 C69.3668376,64.3937607 69.1753846,64.5852137 68.9394872,64.5852137" id="Fill-63" fill="#FFFFFF"></path>
                <path d="M59.255641,34.5513675 L60.3428205,39.6428205 L64.3658974,33.6684615 L59.255641,34.5513675 Z M60.1351282,41.1436752 C60.1086325,41.1436752 60.0812821,41.1411111 60.0547863,41.1359829 C59.8855556,41.1035043 59.7530769,40.9735897 59.7171795,40.8052137 L58.3265812,34.2949573 C58.3026496,34.1812821 58.3257265,34.0633333 58.3906838,33.9658974 C58.455641,33.8701709 58.5582051,33.804359 58.6718803,33.7847009 L65.2060684,32.6547863 C65.3710256,32.6265812 65.5428205,32.6992308 65.6376923,32.8445299 C65.73,32.9881197 65.7282906,33.1735897 65.6334188,33.3154701 L60.4898291,40.9547863 C60.4094872,41.0744444 60.2752991,41.1436752 60.1351282,41.1436752 L60.1351282,41.1436752 Z" id="Fill-65" fill="#FFFFFF"></path>
                <path d="M59.7698291,55.5616239 C59.6604274,55.5616239 59.5510256,55.5197436 59.467265,55.4368376 C59.3005983,55.2693162 59.3005983,54.9992308 59.467265,54.8317094 L68.6373504,45.6607692 C68.8040171,45.4941026 69.0749573,45.4941026 69.2416239,45.6607692 C69.4082906,45.8274359 69.4082906,46.0983761 69.2416239,46.2650427 L60.0723932,55.4368376 C59.9886325,55.5197436 59.8792308,55.5616239 59.7698291,55.5616239" id="Fill-67" fill="#FFFFFF"></path>
                <path d="M64.3546154,63.012735 C64.1187179,63.012735 63.927265,62.8212821 63.927265,62.5853846 L63.927265,50.9759829 L55.4204274,50.9759829 C55.1845299,50.9759829 54.9930769,50.7845299 54.9930769,50.5486325 C54.9930769,50.312735 55.1845299,50.1212821 55.4204274,50.1212821 L64.3546154,50.1212821 C64.5905128,50.1212821 64.7819658,50.312735 64.7819658,50.5486325 L64.7819658,62.5853846 C64.7819658,62.8212821 64.5905128,63.012735 64.3546154,63.012735" id="Fill-69" fill="#FFFFFF"></path>
                <path d="M50.6259829,55.5616239 C50.5131624,55.5616239 50.4011966,55.5171795 50.3174359,55.43 C50.154188,55.2590598 50.1601709,54.9881197 50.3302564,54.8257265 L54.8020513,50.5488034 L50.3302564,46.2718803 C50.1601709,46.1086325 50.154188,45.8376923 50.3174359,45.6676068 C50.4815385,45.4983761 50.7516239,45.4906838 50.9217094,45.6539316 L55.7157265,50.2394017 C55.8003419,50.3205983 55.8473504,50.4317094 55.8473504,50.5488034 C55.8473504,50.6650427 55.8003419,50.7761538 55.7157265,50.8573504 L50.9217094,55.4428205 C50.8388034,55.5223077 50.7319658,55.5616239 50.6259829,55.5616239" id="Fill-71" fill="#FFFFFF"></path>
                <path d="M49.7020513,7.06905983 C25.7225641,7.06905983 6.21401709,26.5776068 6.21401709,50.5579487 C6.21401709,74.5374359 25.7225641,94.0459829 49.7020513,94.0459829 C73.6815385,94.0459829 93.1900855,74.5374359 93.1900855,50.5579487 C93.1900855,26.5776068 73.6815385,7.06905983 49.7020513,7.06905983 M49.7020513,94.9006838 C25.2516239,94.9006838 5.35931624,75.0083761 5.35931624,50.5579487 C5.35931624,26.1066667 25.2516239,6.21435897 49.7020513,6.21435897 C74.1524786,6.21435897 94.0447863,26.1066667 94.0447863,50.5579487 C94.0447863,75.0083761 74.1524786,94.9006838 49.7020513,94.9006838" id="Fill-73" fill="#FFFFFF"></path>
                <g id="Group-77" transform="translate(0.000000, 0.259829)">
                    <mask id="mask-2" fill="white">
                        <use xlink:href="#path-1"></use>
                    </mask>
                    <g id="Clip-76"></g>
                    <path d="M49.7020513,1.44982906 C22.7670085,1.44982906 0.855042735,23.3635043 0.855042735,50.2976923 C0.855042735,77.232735 22.7670085,99.1455556 49.7020513,99.1455556 C76.637094,99.1455556 98.5490598,77.232735 98.5490598,50.2976923 C98.5490598,23.3635043 76.637094,1.44982906 49.7020513,1.44982906 M49.7020513,100.000256 C22.2969231,100.000256 0.000341880342,77.7036752 0.000341880342,50.2976923 C0.000341880342,22.8917094 22.2969231,0.595128205 49.7020513,0.595128205 C77.1071795,0.595128205 99.4037607,22.8917094 99.4037607,50.2976923 C99.4037607,77.7036752 77.1071795,100.000256 49.7020513,100.000256" id="Fill-75" fill="#FFFFFF" mask="url(#mask-2)"></path>
                </g>
            </g>
        </g>
    </g>
</svg>