<?xml version="1.0" encoding="UTF-8"?>
<svg width="30px" height="34px" viewBox="0 0 30 34" version="1.1" xmlns="http://www.w3.org/2000/svg" xmlns:xlink="http://www.w3.org/1999/xlink">
    <!-- Generator: Sketch 40.3 (33839) - http://www.bohemiancoding.com/sketch -->
    <title>logo-g</title>
    <desc>Created with Sketch.</desc>
    <defs></defs>
    <g id="Page-1" stroke="none" stroke-width="1" fill="none" fill-rule="evenodd">
        <g id="iPhone-SE-Copy" transform="translate(-20.000000, -13.000000)" fill="#000000">
            <path d="M49.1772933,38.6688606 L46.7470177,37.8362814 L46.7470177,29.7589469 L49.1772933,27.32826 L49.1772933,38.6688606 Z M36.5948169,45.3669272 C27.8983957,45.3669272 20.8227067,38.2916495 20.8227067,29.5952283 C20.8227067,20.8979844 27.8983957,13.8227067 36.5948169,13.8227067 C39.9917729,13.8227067 43.2994652,14.9271905 46.0098725,16.9440559 L42.4113534,17.5660222 C40.5911148,16.6840806 38.6359523,16.2332374 36.5948169,16.2332374 C29.2270671,16.2332374 23.2332374,22.2274784 23.2332374,29.5952283 C23.2332374,36.9629782 29.2270671,42.9568079 36.5948169,42.9568079 C40.349239,42.9568079 43.9251337,41.3722748 46.4553682,38.6055121 L48.9058001,39.4454957 C45.8942822,43.213081 41.4422049,45.3669272 36.5948169,45.3669272 L36.5948169,45.3669272 Z M43.5421637,21.5787742 L42.8469766,18.3257919 L46.1118881,17.7614151 L43.5421637,21.5787742 Z M36.5948169,19.4800494 C31.0053476,19.4800494 26.458659,24.0271493 26.458659,29.6162073 C26.458659,35.2056767 31.0053476,39.753188 36.5948169,39.753188 C39.0082271,39.753188 41.3237351,38.8909914 43.1546689,37.3331962 L45.6232003,38.2937063 C43.2640889,40.740436 40.0078157,42.1341012 36.5948169,42.1341012 C29.6807898,42.1341012 24.0559441,36.5088441 24.0559441,29.5952283 C24.0559441,22.6812012 29.6807898,17.0559441 36.5948169,17.0559441 C38.4895105,17.0559441 40.3048128,17.4701769 41.9962978,18.2801316 L42.6877828,21.5174825 C40.9387084,20.197861 38.8173591,19.4800494 36.5948169,19.4800494 L36.5948169,19.4800494 Z M45.924311,30.5816536 L45.924311,37.5281777 L43.493624,36.5828877 L43.493624,33.0123406 L45.924311,30.5816536 Z M37.6203209,32.430687 L40.1616619,30 L45.342246,30 L42.9119704,32.430687 L37.6203209,32.430687 Z M37.0061703,27.2978198 L39.4010695,29.5886466 L37.0061703,31.8794735 L37.0061703,27.2978198 Z M48.5956397,26.7466063 L46.1649527,29.1772933 L40.1616619,29.1772933 L37.6203209,26.7466063 L48.5956397,26.7466063 Z M49.9683258,26.178116 C49.9267791,26.0773344 49.8465652,25.9971205 49.7457836,25.9555738 C49.6955985,25.9345948 49.6421226,25.9238996 49.5886466,25.9238996 L36.5948169,25.9238996 C36.5935829,25.9238996 36.5923488,25.9247223 36.5911148,25.9247223 C36.5471,25.9251337 36.5043192,25.9362402 36.4627725,25.9506376 C36.4533114,25.9535171 36.4426162,25.9531057 36.4335664,25.9568079 C36.4175237,25.9638009 36.4051831,25.9773756 36.389963,25.9864253 C36.3587001,26.0049362 36.3266146,26.0222131 36.3011107,26.0481283 C36.3002879,26.0493624 36.2986425,26.0497738 36.2974085,26.0505965 C36.2846565,26.0645825 36.2793089,26.0818593 36.2686137,26.0970794 C36.2484574,26.1242287 36.2270671,26.1505553 36.2143151,26.1826409 C36.2019745,26.2134924 36.1995064,26.2459893 36.1949815,26.2784862 C36.192102,26.2978198 36.1834636,26.3150967 36.1834636,26.335253 L36.1834636,32.8420403 C36.1834636,32.8621966 36.192102,32.8794735 36.1949815,32.8988071 C36.1995064,32.931304 36.2019745,32.9638009 36.2143151,32.9946524 C36.2270671,33.026738 36.2484574,33.0530646 36.2682024,33.0802139 C36.2793089,33.095434 36.2842452,33.1127108 36.2974085,33.1266968 C36.2986425,33.1275195 36.3002879,33.1279309 36.3011107,33.129165 C36.3393665,33.1678322 36.384204,33.1999177 36.4352118,33.2213081 C36.4862197,33.2426985 36.5405183,33.2533937 36.5948169,33.2533937 L42.6709173,33.2533937 L42.6709173,36.6672151 C40.9814891,38.1246401 38.8329905,38.9304813 36.5948169,38.9304813 C31.4594817,38.9304813 27.2813657,34.7523653 27.2813657,29.6162073 C27.2813657,24.4808721 31.4594817,20.3027561 36.5948169,20.3027561 C39.0180995,20.3027561 41.3126285,21.2283011 43.0563554,22.9086796 C43.0584122,22.9107363 43.0612916,22.9111477 43.0633484,22.9127931 C43.0962567,22.9436446 43.1349239,22.9670917 43.1768819,22.9856026 C43.192102,22.9921843 43.2069107,22.9971205 43.2225422,23.0016454 C43.2369395,23.0061703 43.2492801,23.0135747 43.2640889,23.0160428 C43.2900041,23.0213904 43.3163307,23.0238585 43.3418346,23.0238585 C43.34348,23.0238585 43.3447141,23.0234471 43.3459482,23.0234471 C43.3512958,23.0234471 43.356232,23.0218017 43.3615796,23.0213904 C43.4043603,23.0193336 43.4454957,23.0098725 43.4849856,22.9950638 C43.4948581,22.9913616 43.5043192,22.9884821 43.5137803,22.9839572 C43.5565611,22.9642123 43.5952283,22.9378856 43.6293706,22.9041547 C43.6318387,22.9016865 43.6355409,22.9008638 43.638009,22.8979844 C43.6425339,22.8934595 43.643768,22.8872892 43.6478815,22.8827643 C43.6598108,22.8691896 43.6729741,22.8572604 43.6832579,22.8424517 L47.3323735,17.4216372 C47.3545866,17.3883176 47.3714521,17.3521185 47.38297,17.3150967 C47.3837927,17.3134513 47.384204,17.3122172 47.3846154,17.3105718 C47.39819,17.2657343 47.4014809,17.21884 47.3990128,17.1723571 C47.3986014,17.1575483 47.3957219,17.144385 47.3932538,17.1299877 C47.3883176,17.0962567 47.3788564,17.0637598 47.3652818,17.0316742 C47.3591115,17.0176882 47.3541752,17.0045249 47.3467709,16.9913616 C47.3426573,16.9835459 47.3410119,16.9753188 47.3360757,16.9679144 C47.3138626,16.9333608 47.2867133,16.903332 47.2558618,16.8774167 C47.2558618,16.8774167 47.2558618,16.8770053 47.2554504,16.8770053 C44.2760181,14.3767997 40.4899218,13 36.5948169,13 C27.444673,13 20,20.444673 20,29.5952283 C20,38.7453723 27.444673,46.1896339 36.5948169,46.1896339 C41.8153023,46.1896339 46.7947347,43.6865487 49.9152612,39.4940354 C49.9156726,39.493624 49.9160839,39.4932127 49.9164953,39.4928013 C49.9169066,39.4919786 49.9177293,39.4911559 49.918552,39.4899218 C49.9210202,39.486631 49.9214315,39.4825175 49.9238996,39.4788153 C49.9325381,39.4660633 49.9387084,39.4508433 49.9461127,39.4368573 C49.9543398,39.4212258 49.9642123,39.4076512 49.9703826,39.391197 C49.9724393,39.3862608 49.9757302,39.38297 49.9773756,39.3780337 C49.9794323,39.3718634 49.9781983,39.3656931 49.9798437,39.3591115 C49.9864253,39.3373097 49.9876594,39.315508 49.9901275,39.2928836 C49.9921843,39.2764295 50,39.2616207 50,39.2447552 L50,26.335253 C50,26.281777 49.9893048,26.2283011 49.9683258,26.178116 L49.9683258,26.178116 Z" id="logo-g"></path>
        </g>
    </g>
</svg>
