<svg xmlns="http://www.w3.org/2000/svg" xmlns:xlink="http://www.w3.org/1999/xlink"><symbol viewBox="0 0 74 88" id="icon-android"><path fill="#fff" d="M21.481.652l4.062 7.063c-7.394 3.627-12.406 10.728-12.406 18.875h47.312c0-8.147-5.012-15.248-12.406-18.875L52.106.652s.192-.375-.172-.585c-.365-.21-.61.148-.61.148L47.199 7.34a25.565 25.565 0 0 0-10.406-2.187c-3.734 0-7.266.79-10.406 2.187L22.262.215s-.23-.359-.598-.15c-.368.21-.184.587-.184.587zm4.062 13.68c1.24 0 2.25 1.01 2.25 2.25s-1.01 2.22-2.25 2.22-2.25-.98-2.25-2.22 1.01-2.25 2.25-2.25zm22.5 0c1.24 0 2.25 1.01 2.25 2.25s-1.01 2.22-2.25 2.22-2.25-.98-2.25-2.22 1.01-2.25 2.25-2.25zM12.947 29.344v35.893c0 1.78 2.152 4.112 3.933 4.112h5.63v12.237c0 3.116 2.269 5.625 5.093 5.625 2.825 0 5.094-2.51 5.094-5.625V69.349h8.188v12.237c0 3.116 2.269 5.625 5.093 5.625 2.825 0 5.125-2.51 5.125-5.625V69.349h5.599c1.78 0 3.933-2.331 3.933-4.112V29.344H12.947z"/><rect ry="5.625" height="32.545" width="10.197" y="28.593" fill="#fff"/><rect rx="5.625" height="32.545" width="10.197" y="28.593" x="63.39" fill="#fff"/></symbol><symbol viewBox="0 0 170 170" id="icon-apple"><path d="M150.37 130.25c-2.45 5.66-5.35 10.87-8.71 15.66-4.58 6.53-8.33 11.05-11.22 13.56-4.48 4.12-9.28 6.23-14.42 6.35-3.69 0-8.14-1.05-13.32-3.18-5.197-2.12-9.973-3.17-14.34-3.17-4.58 0-9.492 1.05-14.746 3.17-5.262 2.13-9.501 3.24-12.742 3.35-4.929.21-9.842-1.96-14.746-6.52-3.13-2.73-7.045-7.41-11.735-14.04-5.032-7.08-9.169-15.29-12.41-24.65-3.471-10.11-5.211-19.9-5.211-29.378 0-10.857 2.346-20.221 7.045-28.068 3.693-6.303 8.606-11.275 14.755-14.925s12.793-5.51 19.948-5.629c3.915 0 9.049 1.211 15.429 3.591 6.362 2.388 10.447 3.599 12.238 3.599 1.339 0 5.877-1.416 13.57-4.239 7.275-2.618 13.415-3.702 18.445-3.275 13.63 1.1 23.87 6.473 30.68 16.153-12.19 7.386-18.22 17.731-18.1 31.002.11 10.337 3.86 18.939 11.23 25.769 3.34 3.17 7.07 5.62 11.22 7.36-.9 2.61-1.85 5.11-2.86 7.51zM119.11 7.24c0 8.102-2.96 15.667-8.86 22.669-7.12 8.324-15.732 13.134-25.071 12.375a25.222 25.222 0 0 1-.188-3.07c0-7.778 3.386-16.102 9.399-22.908 3.002-3.446 6.82-6.311 11.45-8.597 4.62-2.252 8.99-3.497 13.1-3.71.12 1.083.17 2.166.17 3.24z"/></symbol><symbol viewBox="0 0 88 88" id="icon-windows"><path d="M0 12.402l35.687-4.86.016 34.423-35.67.203zm35.67 33.529l.028 34.453L.028 75.48.026 45.7zm4.326-39.025L87.314 0v41.527l-47.318.376zm47.33 39.349l-.012 41.34-47.318-6.678-.066-34.74z" fill="#fff"/></symbol><symbol viewBox="0 0 30 34" id="logo-g"><title>logo-g</title><path d="M29.177 25.669l-2.43-.833V16.76l2.43-2.43v11.34zm-12.582 6.698C7.898 32.367.823 25.292.823 16.595S7.898.823 16.595.823c3.397 0 6.704 1.104 9.415 3.121l-3.599.622a13.228 13.228 0 0 0-5.816-1.333c-7.368 0-13.362 5.994-13.362 13.362s5.994 13.362 13.362 13.362c3.754 0 7.33-1.585 9.86-4.351l2.45.84c-3.01 3.767-7.463 5.92-12.31 5.92zm6.947-23.788l-.695-3.253 3.265-.565-2.57 3.818zM16.595 6.48c-5.59 0-10.136 4.547-10.136 10.136 0 5.59 4.546 10.137 10.136 10.137a10.11 10.11 0 0 0 6.56-2.42l2.468.96a12.544 12.544 0 0 1-9.028 3.841c-6.914 0-12.54-5.625-12.54-12.539s5.626-12.54 12.54-12.54c1.895 0 3.71.415 5.401 1.225l.692 3.237a10.079 10.079 0 0 0-6.093-2.037zm9.33 11.102v6.946l-2.431-.945v-3.57l2.43-2.431zM17.62 19.43L20.162 17h5.18l-2.43 2.43H17.62zm-.614-5.133l2.395 2.29-2.395 2.291v-4.581zm11.59-.551l-2.431 2.43h-6.003l-2.542-2.43h10.976zm1.372-.569a.41.41 0 0 0-.38-.254H16.592a.405.405 0 0 0-.128.027c-.01.003-.02.002-.03.006-.015.007-.028.02-.043.03-.031.018-.063.035-.089.061l-.004.003c-.012.014-.018.03-.028.046-.02.027-.042.054-.055.086-.012.03-.014.063-.019.095-.003.02-.012.037-.012.057v6.507c0 .02.01.037.012.057.005.032.007.065.02.096.012.032.033.058.053.085.011.015.016.033.03.047a.415.415 0 0 0 .297.127h6.076v3.413a9.29 9.29 0 0 1-6.076 2.263c-5.136 0-9.314-4.178-9.314-9.314 0-5.135 4.178-9.313 9.314-9.313 2.423 0 4.718.925 6.461 2.606l.007.004a.4.4 0 0 0 .16.089c.014.004.026.012.041.014a.386.386 0 0 0 .078.008h.004l.016-.003a.406.406 0 0 0 .123-.026l.029-.011a.404.404 0 0 0 .115-.08c.003-.002.007-.003.009-.006.005-.005.006-.01.01-.015.012-.014.025-.026.035-.04l3.65-5.421a.414.414 0 0 0 .066-.25c0-.014-.003-.028-.006-.042a.4.4 0 0 0-.028-.098c-.006-.014-.01-.027-.018-.04-.004-.008-.006-.017-.01-.024a.402.402 0 0 0-.081-.09v-.001A16.609 16.609 0 0 0 16.594 0C7.445 0 0 7.445 0 16.595c0 9.15 7.445 16.595 16.595 16.595a16.68 16.68 0 0 0 13.321-6.697l.003-.003c.002-.003.002-.007.005-.011.009-.013.015-.028.022-.042.008-.016.018-.03.024-.046.002-.005.006-.008.007-.013.002-.006.001-.012.003-.019.006-.022.008-.043.01-.066.002-.017.01-.031.01-.048v-12.91a.408.408 0 0 0-.032-.157z" fill="#000" fill-rule="evenodd"/></symbol><symbol viewBox="0 0 100 101" id="logo-main"><title>main-logo</title><defs><path id="ea" d="M0 100h99.404V.595H0V100z"/></defs><g fill="none" fill-rule="evenodd"><path d="M19.816 44.32l.33-1.227c.228-.838.198-1.56-.1-2.149-.298-.588-.803-.983-1.533-1.18-.731-.198-1.365-.11-1.92.249-.555.357-.943.967-1.17 1.806l-.332 1.226 4.725 1.275zm.67 1.32l-6.64-1.792.645-2.384c.294-1.09.845-1.884 1.647-2.402.802-.52 1.693-.652 2.67-.388.977.263 1.69.828 2.12 1.679.431.852.498 1.813.203 2.903l-.645 2.384zM22.749 38.491l-6.252-2.87.457-1 6.254 2.87zM23.454 34.991c-.948.192-1.851.002-2.705-.578-.855-.578-1.367-1.347-1.528-2.302-.169-.96.047-1.876.636-2.745.475-.706 1.04-1.191 1.697-1.46l.887.602a3.66 3.66 0 0 0-1.708 1.367c-.426.629-.583 1.284-.46 1.96.126.675.49 1.224 1.117 1.649.626.423 1.273.572 1.932.44.657-.146 1.183-.504 1.58-1.09.397-.59.555-1.171.467-1.727l-2.075-1.405.616-.912 2.44 1.656c.235.846.045 1.986-.609 2.955-.577.853-1.342 1.387-2.287 1.59M28.262 30.066l-4.965-4.768.763-.793 4.965 4.769zM25.337 23.129l4.519-3.521.61.782-1.829 1.427 3.622 4.643-.868.677-3.621-4.645-1.823 1.419zM34.32 21.923l2.284-1.157-2.446-2 .163 3.157zm-.848 3.416l-.394-7.559.945-.479 5.852 4.793-1.052.533-1.45-1.183-2.962 1.501.105 1.866-1.044.528zM40.636 21.98l-1.692-6.665 1.076-.273 1.45 5.703 3.606-.914.244.961zM50.174 17.881l2.558.135-1.128-2.952-1.43 2.817zm-2.437 2.539l3.417-6.747 1.06.055 2.698 7.067-1.18-.061-.67-1.747-3.317-.174-.838 1.667-1.17-.06zM55.576 20.983l2.032-6.579.918.284 2.305 5.93 1.471-4.764 1.033.319-2.031 6.578-.89-.274-2.327-5.958-1.478 4.783zM62.619 23.52l3.146-6.122.977.502-3.146 6.122zM64.991 24.602l4.218-5.43.885.686-.104 3.836 3.674-1.061.87.674-4.219 5.433-.868-.675 3.206-4.129-3.132.852-.506-.393.05-3.245-3.204 4.127zM74.326 29.409l1.558 2.033 1.512-2.773-3.07.74zm-3.512-.209l7.35-1.774.644.842-3.626 6.637-.718-.939.894-1.642-2.02-2.637-1.813.443-.71-.93zM75.43 35.613l6.225-2.927.471 1.004-5.326 2.505 1.581 3.366-.899.422zM78.271 40.39l1.137-.279c-.172.33-.281.749-.341 1.248-.058.509-.03.997.085 1.462.22.894.76 1.482 1.38 1.33a.838.838 0 0 0 .548-.454c.048-.094.086-.227.115-.4.066-.346.07-.54.085-1.009l.005-.145c.012-.405.032-.73.06-.952a5.04 5.04 0 0 1 .167-.763c.183-.57.562-.88 1.174-1.03 1.108-.272 2.056.494 2.431 2.02.201.815.198 1.589-.019 2.312l-1.05.258c.242-.79.274-1.561.09-2.31-.229-.933-.694-1.302-1.19-1.18-.288.07-.4.273-.505.547-.045.145-.064.479-.092.661l-.028.83c-.025.553-.067.882-.19 1.366-.167.68-.566 1.119-1.31 1.343-.622.152-1.172.018-1.646-.39-.475-.408-.81-.986-.994-1.734-.255-1.04-.224-1.944.088-2.731M17.768 65.685c.264-.931.845-1.648 1.75-2.143.906-.494 1.825-.598 2.746-.304.932.29 1.646.9 2.15 1.822.407.746.58 1.472.52 2.177l-.942.513a3.668 3.668 0 0 0-.433-2.144c-.365-.667-.873-1.105-1.53-1.304-.658-.2-1.314-.128-1.976.236-.665.363-1.092.87-1.275 1.518-.171.65-.096 1.282.245 1.904.34.623.786 1.029 1.32 1.204l2.198-1.2.527.963-2.586 1.414c-.86-.18-1.786-.87-2.346-1.896-.495-.903-.619-1.826-.368-2.76M21.623 72.573l.87-.78c.004.372.105.794.287 1.261.19.476.444.892.764 1.25.617.685 1.368.951 1.843.525a.841.841 0 0 0 .27-.658 1.474 1.474 0 0 0-.088-.406c-.105-.337-.195-.51-.4-.93l-.065-.132c-.18-.362-.314-.658-.396-.868a5.353 5.353 0 0 1-.212-.75c-.106-.59.082-1.042.55-1.46.849-.763 2.044-.532 3.095.638.56.624.922 1.307 1.07 2.047l-.803.722c-.16-.81-.494-1.507-1.007-2.08-.642-.714-1.227-.82-1.607-.48-.22.196-.223.427-.187.719.028.148.169.452.232.624l.366.747c.238.5.356.81.474 1.295.173.678.028 1.252-.522 1.799-.476.426-1.022.567-1.632.43-.613-.136-1.178-.488-1.694-1.062-.715-.795-1.113-1.61-1.208-2.451M30.265 72.76l4.606 3.408-.59.798-1.865-1.38-3.5 4.733-.884-.654 3.499-4.732-1.855-1.374zM35.685 76.64l1.007.439-1.599 3.677c-.514 1.183-.132 2.11.886 2.552 1.017.443 1.965.094 2.478-1.088l1.6-3.678 1.009.438-1.585 3.642c-.384.885-.929 1.463-1.644 1.73-.716.267-1.464.232-2.262-.115-.797-.347-1.333-.87-1.63-1.567-.283-.702-.233-1.494.155-2.388l1.585-3.642zM42.722 85.42l1.256.199c.86.135 1.574.03 2.128-.331.552-.36.892-.904 1.01-1.65.116-.749-.038-1.37-.455-1.883-.415-.513-1.063-.834-1.923-.97l-1.255-.197-.761 4.832zm-1.241.81l1.069-6.794 2.442.385c1.116.176 1.965.639 2.567 1.38.603.741.83 1.612.673 2.612-.157 1-.643 1.768-1.444 2.288-.801.52-1.75.69-2.866.513l-2.441-.384zM50.301 87.137l-.161-6.875 1.1-.025.161 6.875zM57.395 85.459a2.343 2.343 0 0 0 1.548-1.082c.355-.58.46-1.226.305-1.937-.155-.711-.519-1.257-1.08-1.628a2.313 2.313 0 0 0-1.858-.35c-.675.145-1.19.509-1.545 1.09-.358.572-.453 1.215-.298 1.927.155.71.508 1.257 1.073 1.638.561.37 1.18.488 1.855.342m.216.99c-1.008.218-1.912.063-2.722-.456-.8-.53-1.312-1.286-1.527-2.275-.216-.99-.062-1.888.449-2.694.52-.818 1.276-1.334 2.284-1.553 1.006-.218 1.911-.062 2.721.465.81.52 1.322 1.273 1.537 2.264.215.99.062 1.888-.457 2.706-.52.806-1.279 1.324-2.285 1.542M62.659 84.165a.693.693 0 0 1 .397-.906.702.702 0 0 1 .909.372.69.69 0 0 1-.384.91.695.695 0 0 1-.922-.376M66.318 82.26c-.948-.226-1.685-.782-2.211-1.67-.526-.888-.66-1.802-.4-2.733.257-.942.842-1.679 1.754-2.22.62-.367 1.24-.555 1.87-.573l.554.938a3.448 3.448 0 0 0-1.9.5c-.628.374-1.036.902-1.21 1.566-.177.663-.073 1.311.303 1.945.377.633.906 1.039 1.575 1.202.674.159 1.327.046 1.972-.337.68-.404 1.15-.923 1.4-1.563l.556.938c-.314.609-.803 1.117-1.482 1.52-.903.538-1.83.7-2.781.487M74.709 75.994a2.338 2.338 0 0 0 .712-1.747c-.017-.68-.279-1.28-.794-1.795-.515-.512-1.116-.772-1.79-.779a2.31 2.31 0 0 0-1.748.714 2.31 2.31 0 0 0-.707 1.754c.01.672.28 1.265.794 1.779.516.514 1.11.78 1.79.795a2.344 2.344 0 0 0 1.743-.721m.717.714c-.727.73-1.571 1.09-2.531 1.094-.96-.01-1.8-.367-2.515-1.08-.717-.715-1.076-1.552-1.084-2.506-.008-.968.349-1.814 1.075-2.544.727-.73 1.57-1.09 2.538-1.086.96-.004 1.799.351 2.515 1.066.717.715 1.076 1.552 1.084 2.52 0 .96-.357 1.806-1.082 2.536M79.767 71.48l-6.028-3.31.538-.982 3.803-.5-1.629-3.462.529-.964 6.026 3.31-.527.963-4.582-2.516 1.336 2.958-.307.562-3.212.461 4.581 2.515zM81.608 54.12c.423-.135.709-.357.943-.734.135.424.357.707.734.942a1.61 1.61 0 0 0-.942.735 1.605 1.605 0 0 0-.735-.943m.91 2.378c.459-1.452.597-1.56 2.117-1.648a.358.358 0 0 0 .086-.698c-1.451-.457-1.56-.595-1.649-2.116a.357.357 0 0 0-.696-.086c-.458 1.452-.597 1.56-2.116 1.648a.358.358 0 0 0-.088.697c1.453.459 1.56.597 1.65 2.117a.358.358 0 0 0 .697.086M17.04 55.063c-.234-.378-.52-.6-.942-.735.378-.234.599-.519.734-.943.235.378.52.6.943.735-.377.234-.6.52-.734.943m.208 1.683a.358.358 0 0 0 .313-.334c.089-1.52.196-1.658 1.649-2.117a.357.357 0 0 0-.087-.696c-1.52-.09-1.658-.198-2.116-1.649a.357.357 0 0 0-.697.086c-.09 1.52-.197 1.659-1.65 2.117a.357.357 0 0 0 .087.696c1.52.09 1.658.198 2.117 1.649a.357.357 0 0 0 .384.248M50.626 73.794c-12.812 0-23.237-10.424-23.237-23.237 0-12.812 10.425-23.236 23.237-23.236a23.257 23.257 0 0 1 14.927 5.429c.182.151.205.42.052.601a.424.424 0 0 1-.601.053 22.405 22.405 0 0 0-14.378-5.229c-12.341 0-22.382 10.041-22.382 22.382 0 12.342 10.041 22.382 22.382 22.382 7.148 0 13.697-3.294 17.97-9.036a.431.431 0 0 1 .6-.088c.187.14.227.41.086.598-4.37 5.873-11.344 9.381-18.656 9.381" fill="#FFF"/><path d="M50.626 64.721c-7.793 0-14.133-6.34-14.133-14.133 0-7.793 6.34-14.134 14.133-14.134 3.678 0 7.16 1.404 9.806 3.954a.427.427 0 1 1-.593.616 13.214 13.214 0 0 0-9.213-3.716c-7.321 0-13.279 5.957-13.279 13.28 0 7.321 5.958 13.279 13.279 13.279 3.274 0 6.42-1.202 8.856-3.383a.427.427 0 1 1 .57.636 14.11 14.11 0 0 1-9.426 3.601" fill="#FFF"/><path d="M50.626 69.237c-10.3 0-18.679-8.38-18.679-18.679 0-10.3 8.379-18.68 18.679-18.68 2.92 0 5.715.655 8.31 1.945a.427.427 0 0 1-.382.765 17.641 17.641 0 0 0-7.928-1.855c-9.828 0-17.824 7.996-17.824 17.825 0 9.828 7.996 17.824 17.824 17.824 5.132 0 10.02-2.215 13.408-6.078a.428.428 0 0 1 .642.564 18.694 18.694 0 0 1-14.05 6.369" fill="#FFF"/><path d="M68.94 64.585a.436.436 0 0 1-.139-.023l-4.585-1.573-4.604-1.79a.427.427 0 1 1 .31-.796l4.588 1.784 4.568 1.567a.427.427 0 0 1-.139.831" fill="#FFF"/><path d="M68.94 64.585a.428.428 0 0 1-.428-.427V46.39H51.053v8.317h8.716c.237 0 .428.191.428.427V60.8a.426.426 0 1 1-.855 0v-5.24h-8.716a.427.427 0 0 1-.428-.427v-9.171c0-.236.192-.427.428-.427h18.313c.236 0 .428.191.428.427v18.195a.428.428 0 0 1-.428.427M59.256 34.551l1.087 5.092 4.023-5.975-5.11.883zm.88 6.593a.426.426 0 0 1-.419-.339l-1.39-6.51a.43.43 0 0 1 .345-.51l6.534-1.13a.431.431 0 0 1 .432.19.43.43 0 0 1-.005.47l-5.143 7.64a.428.428 0 0 1-.355.189z" fill="#FFF"/><path d="M59.77 55.562a.429.429 0 0 1-.303-.73l9.17-9.171a.428.428 0 0 1 .605.604l-9.17 9.172a.43.43 0 0 1-.302.125" fill="#FFF"/><path d="M64.355 63.013a.428.428 0 0 1-.428-.428V50.976H55.42a.428.428 0 0 1 0-.855h8.935c.236 0 .427.192.427.428v12.036a.428.428 0 0 1-.427.428" fill="#FFF"/><path d="M50.626 55.562a.427.427 0 0 1-.296-.736l4.472-4.277-4.472-4.277a.428.428 0 0 1 .592-.618l4.794 4.585a.427.427 0 0 1 0 .618l-4.794 4.586a.426.426 0 0 1-.296.119" fill="#FFF"/><path d="M49.702 7.07c-23.98 0-43.488 19.508-43.488 43.488s19.509 43.488 43.488 43.488c23.98 0 43.488-19.509 43.488-43.488 0-23.98-19.508-43.489-43.488-43.489m0 87.832C25.252 94.9 5.36 75.008 5.36 50.558c0-24.451 19.893-44.344 44.343-44.344 24.45 0 44.343 19.893 44.343 44.344 0 24.45-19.893 44.343-44.343 44.343" fill="#FFF"/><g transform="translate(0 .26)"><mask id="eb" fill="#fff"><use xlink:href="#ea"/></mask><path d="M49.702 1.45C22.767 1.45.855 23.364.855 50.298c0 26.935 21.912 48.848 48.847 48.848 26.935 0 48.847-21.913 48.847-48.848 0-26.934-21.912-48.848-48.847-48.848m0 98.55C22.297 100 0 77.704 0 50.298S22.297.595 49.702.595c27.405 0 49.702 22.297 49.702 49.703C99.404 77.704 77.107 100 49.702 100" fill="#FFF" mask="url(#eb)"/></g></g></symbol></svg>